<mxfile host="app.diagrams.net" modified="2023-04-26T13:55:50.010Z" agent="Mozilla/5.0 (Windows NT 10.0; Win64; x64) AppleWebKit/537.36 (KHTML, like Gecko) Chrome/112.0.0.0 Safari/537.36" version="21.2.1" etag="7xg6ecJhBF_kYdAiBZdO" type="github">
  <diagram name="第 1 页" id="bJW0eNKzAWdfwI845jyc">
    <mxGraphModel>
      <root>
        <mxCell id="0" />
        <mxCell id="1" parent="0" />
      </root>
    </mxGraphModel>
  </diagram>
</mxfile>
